<?xml version="1.0" encoding="utf-8"?>
<!-- Generator: Adobe Illustrator 17.0.0, SVG Export Plug-In . SVG Version: 6.00 Build 0)  -->
<!DOCTYPE svg PUBLIC "-//W3C//DTD SVG 1.1//EN" "http://www.w3.org/Graphics/SVG/1.1/DTD/svg11.dtd">
<svg version="1.1" id="Layer_2" xmlns="http://www.w3.org/2000/svg" xmlns:xlink="http://www.w3.org/1999/xlink" x="0px" y="0px"
	 width="667.427px" height="218.726px" viewBox="0 0 667.427 218.726" enable-background="new 0 0 667.427 218.726"
	 xml:space="preserve">
<g>
	<g>
		<g>
			<g>
				<g>
					<path fill="#EFC53E" d="M596.007,197.831l-39.284-2.45l39.284-2.45c1.353-0.084,2.519,0.944,2.603,2.297
						c0.084,1.353-0.944,2.518-2.297,2.603C596.214,197.837,596.103,197.837,596.007,197.831z"/>
					<polygon fill="#EFC53E" points="629.334,195.381 621.377,199.308 620.101,208.09 613.907,201.735 605.161,203.235 
						609.291,195.381 605.161,187.527 613.907,189.027 620.101,182.673 621.377,191.454 					"/>
				</g>
				<g>
					<path fill="#60A6AD" d="M635.295,146.574c-0.029,0.01-0.068,0.019-0.097,0.019l-73.977,12.76v-2.096l73.061-15.48
						c1.316-0.273,2.622,0.565,2.905,1.891C637.459,144.994,636.62,146.301,635.295,146.574z"/>
					<polygon fill="#60A6AD" points="667.427,137.686 660.388,143.09 660.85,151.951 653.536,146.928 645.25,150.105 
						647.768,141.596 642.186,134.698 651.056,134.463 655.891,127.023 658.856,135.386 					"/>
				</g>
				<g>
					<path fill="#27456B" d="M580.043,112.29c-0.02,0-0.049,0.019-0.068,0.029l-18.755,7.418v-2.018
						c0-0.868-0.039-1.725-0.107-2.583l16.981-7.35c1.248-0.536,2.69,0.039,3.227,1.277
						C581.857,110.301,581.281,111.744,580.043,112.29z"/>
					<polygon fill="#27456B" points="609.825,97.298 603.976,103.972 606.157,112.573 598.003,109.072 590.497,113.805 
						591.307,104.969 584.486,99.292 593.14,97.331 596.431,89.091 600.97,96.715 					"/>
				</g>
				<g>
					<path fill="#DF626C" d="M611.958,39.736c-0.01,0.01-0.039,0.019-0.049,0.029l-73.918,47.541
						c-1.17-0.322-2.359-0.565-3.578-0.751l74.786-50.874c1.121-0.76,2.642-0.468,3.412,0.653
						C613.371,37.445,613.079,38.976,611.958,39.736z"/>
					<polygon fill="#DF626C" points="638.265,19.21 633.831,26.896 637.648,34.906 628.968,33.064 622.53,39.17 621.599,30.346 
						613.802,26.109 621.908,22.498 623.527,13.773 629.467,20.366 					"/>
				</g>
				<g>
					<path fill="#EFC53E" d="M532.503,39.366c-0.02,0.029-0.049,0.058-0.068,0.078l-48.857,46.761h-2.671l48.057-50.221
						c0.936-0.985,2.486-1.014,3.47-0.078C533.409,36.841,533.438,38.391,532.503,39.366z"/>
					<polygon fill="#EFC53E" points="554.265,14.148 551.415,22.551 556.722,29.663 547.85,29.549 542.726,36.794 540.092,28.321 
						531.618,25.687 538.863,20.563 538.75,11.69 545.862,16.997 					"/>
				</g>
			</g>
			<g>
				<g>
					<path fill="#EFC53E" d="M71.42,197.831l39.284-2.45l-39.284-2.45c-1.353-0.084-2.519,0.944-2.603,2.297
						c-0.084,1.353,0.944,2.518,2.297,2.603C71.212,197.837,71.324,197.837,71.42,197.831z"/>
					<polygon fill="#EFC53E" points="38.092,195.381 46.049,199.308 47.325,208.09 53.519,201.735 62.265,203.235 58.136,195.381 
						62.265,187.527 53.519,189.027 47.325,182.673 46.049,191.454 					"/>
				</g>
				<g>
					<path fill="#60A6AD" d="M106.713,157.364v2.076l-74.484-12.848c-0.029,0-0.068-0.01-0.097-0.019
						c-1.326-0.273-2.164-1.579-1.891-2.905c0.283-1.326,1.589-2.164,2.905-1.891L106.713,157.364z"/>
					<polygon fill="#60A6AD" points="0,137.686 7.038,143.09 6.577,151.951 13.891,146.928 22.176,150.105 19.659,141.596 
						25.241,134.698 16.37,134.463 11.535,127.023 8.57,135.386 					"/>
				</g>
				<g>
					<path fill="#27456B" d="M106.801,115.351c-0.058,0.78-0.088,1.569-0.088,2.369v2.223l-19.262-7.623
						c-0.019-0.01-0.049-0.029-0.068-0.029c-1.238-0.546-1.813-1.989-1.277-3.227c0.536-1.238,1.979-1.813,3.227-1.277
						L106.801,115.351z"/>
					<polygon fill="#27456B" points="57.602,97.298 63.451,103.972 61.269,112.573 69.423,109.072 76.929,113.805 76.12,104.969 
						82.941,99.292 74.286,97.331 70.996,89.091 66.456,96.715 					"/>
				</g>
				<g>
					<path fill="#DF626C" d="M133.111,86.624c-1.199,0.195-2.369,0.458-3.519,0.79L55.517,39.765
						c-0.01-0.01-0.039-0.019-0.049-0.029c-1.121-0.76-1.413-2.291-0.653-3.402c0.77-1.121,2.291-1.413,3.412-0.653L133.111,86.624z
						"/>
					<polygon fill="#DF626C" points="29.162,19.21 33.596,26.896 29.778,34.906 38.458,33.064 44.897,39.17 45.827,30.346 
						53.624,26.109 45.519,22.498 43.899,13.773 37.959,20.366 					"/>
				</g>
				<g>
					<path fill="#EFC53E" d="M186.52,86.205h-2.671l-48.857-46.761c-0.02-0.019-0.049-0.049-0.068-0.078
						c-0.936-0.975-0.907-2.525,0.068-3.461c0.985-0.936,2.534-0.907,3.47,0.078L186.52,86.205z"/>
					<polygon fill="#EFC53E" points="113.162,14.148 116.011,22.551 110.704,29.663 119.577,29.549 124.701,36.794 127.334,28.321 
						135.808,25.687 128.563,20.563 128.677,11.69 121.565,16.997 					"/>
				</g>
			</g>
		</g>
	</g>
	<g>
		<g>
			<defs>
				<path id="SVGID_1_" d="M208.342,121.072c0,19.347-10.432,30.729-29.02,43.626l-20.676,14.416h49.885v31.866H107.054v-6.828
					c0-14.416,3.794-23.899,15.174-32.815l37.557-29.589c7.397-5.88,10.242-12.898,10.242-19.917c0-7.398-5.88-13.278-13.277-13.278
					h-2.466c-7.398,0-13.278,5.691-13.278,13.278v5.311h-33.384v-3.604c0-24.847,17.451-44.574,48.368-44.574h5.88
					C189.943,78.965,208.342,96.414,208.342,121.072z"/>
			</defs>
			<clipPath id="SVGID_2_">
				<use xlink:href="#SVGID_1_"  overflow="visible"/>
			</clipPath>
			<g clip-path="url(#SVGID_2_)">
				<polygon fill="#EFC53E" points="181.697,62.929 101.856,142.769 87.684,142.769 87.684,62.929 				"/>
				<polygon fill="#DF626C" points="218.141,62.929 218.141,142.769 101.856,142.769 181.697,62.929 				"/>
				<rect x="87.689" y="142.773" fill="#60A6AD" width="65.671" height="86.143"/>
				<rect x="153.36" y="142.773" fill="#27456B" width="64.774" height="86.143"/>
				<g>
					<path fill="#EFC53E" d="M174.092,170.645c-4.55,0-8.252-3.702-8.252-8.252c0-4.55,3.702-8.252,8.252-8.252
						c4.551,0,8.253,3.702,8.253,8.252C182.345,166.943,178.643,170.645,174.092,170.645z M174.092,156.028
						c-3.51,0-6.366,2.856-6.366,6.366c0,3.51,2.856,6.366,6.366,6.366c3.51,0,6.366-2.856,6.366-6.366
						C180.459,158.884,177.603,156.028,174.092,156.028z"/>
				</g>
				<g>
					<path fill="#27456B" d="M184.798,126.592h-11.073v-11.072h11.073V126.592z M175.612,124.705h7.3v-7.3h-7.3V124.705z"/>
				</g>
				<g>
					<g>
						<circle fill="#FFFFFF" cx="139.322" cy="192.132" r="1.601"/>
						<circle fill="#FFFFFF" cx="154.052" cy="192.132" r="1.601"/>
						<circle fill="#FFFFFF" cx="168.783" cy="192.132" r="1.601"/>
						<circle fill="#FFFFFF" cx="183.513" cy="192.132" r="1.601"/>
						<circle fill="#FFFFFF" cx="198.244" cy="192.132" r="1.601"/>
					</g>
					<g>
						<circle fill="#FFFFFF" cx="146.313" cy="198.592" r="1.601"/>
						<circle fill="#FFFFFF" cx="161.044" cy="198.592" r="1.601"/>
						<circle fill="#FFFFFF" cx="175.774" cy="198.592" r="1.601"/>
						<circle fill="#FFFFFF" cx="190.505" cy="198.592" r="1.601"/>
						<circle fill="#FFFFFF" cx="205.235" cy="198.592" r="1.601"/>
					</g>
				</g>
				<g>
					<path fill="#FFFFFF" d="M203.284,168.14c-0.168,0-0.335-0.066-0.458-0.198c-0.238-0.253-0.225-0.651,0.028-0.889l4.304-4.045
						l-4.792-4.503l4.791-4.5l-4.791-4.496l4.791-4.498l-4.791-4.497l4.791-4.498l-4.791-4.497l4.791-4.495l-4.791-4.493l5.28-4.955
						c0.254-0.236,0.652-0.225,0.889,0.028c0.238,0.254,0.225,0.651-0.028,0.889l-4.303,4.037l4.791,4.493l-4.792,4.495l4.791,4.497
						l-4.791,4.498l4.791,4.497l-4.791,4.498l4.791,4.496l-4.791,4.5l4.791,4.503l-5.279,4.961
						C203.593,168.083,203.439,168.14,203.284,168.14z"/>
				</g>
				<g>
					<path fill="#FFFFFF" d="M112.714,210.741c-0.168,0-0.335-0.066-0.458-0.198c-0.238-0.253-0.225-0.651,0.028-0.889l4.304-4.045
						l-4.792-4.503l4.791-4.5l-4.791-4.496l4.791-4.498l-4.791-4.497l4.791-4.498l-4.791-4.497l4.791-4.495l-4.791-4.493l5.28-4.955
						c0.254-0.236,0.652-0.225,0.889,0.028c0.238,0.254,0.225,0.652-0.028,0.889l-4.303,4.037l4.791,4.493l-4.792,4.495l4.791,4.497
						l-4.791,4.498l4.791,4.497l-4.791,4.498l4.791,4.496l-4.791,4.5l4.791,4.503l-5.279,4.961
						C113.023,210.684,112.869,210.741,112.714,210.741z"/>
				</g>
				<g>
					<path fill="#27456B" d="M164.947,71.19l-6.564-0.214l0.214,6.564l-6.577-0.201l0.201,6.577l-7.231-0.226
						c-0.176-0.013-0.327-0.075-0.427-0.189c-0.126-0.113-0.189-0.277-0.189-0.465c0.013-0.34,0.302-0.616,0.654-0.604l5.898,0.176
						l-0.201-6.564l6.564,0.201l-0.201-6.564l6.564,0.201l-0.201-6.564l6.564,0.214l-0.025-0.604h1.258l0.063,1.899l-6.564-0.214
						L164.947,71.19z"/>
				</g>
				<path fill="#FFFFFF" d="M101.854,81.94h-0.007c-0.768,0-1.388,0.623-1.388,1.391c0,0.768,0.626,1.391,1.394,1.391
					c0.768,0,1.391-0.623,1.391-1.391C103.245,82.563,102.622,81.94,101.854,81.94z M101.854,90.671h-0.007
					c-0.768,0-1.388,0.623-1.388,1.391c0,0.768,0.626,1.391,1.394,1.391c0.768,0,1.391-0.623,1.391-1.391
					C103.245,91.293,102.622,90.671,101.854,90.671z M101.854,108.133h-0.007c-0.768,0-1.388,0.623-1.388,1.391
					c0,0.768,0.626,1.391,1.394,1.391c0.768,0,1.391-0.623,1.391-1.391C103.245,108.756,102.622,108.133,101.854,108.133z
					 M101.854,99.402h-0.007c-0.768,0-1.388,0.623-1.388,1.391c0,0.768,0.626,1.391,1.394,1.391c0.768,0,1.391-0.623,1.391-1.391
					C103.245,100.025,102.622,99.402,101.854,99.402z M101.854,73.209h-0.007c-0.768,0-1.388,0.623-1.388,1.391
					c0,0.768,0.626,1.391,1.394,1.391c0.768,0,1.391-0.623,1.391-1.391C103.245,73.832,102.622,73.209,101.854,73.209z
					 M91.911,93.453c0.768,0,1.391-0.623,1.391-1.391c0-0.768-0.623-1.391-1.391-1.391h-0.007c-0.768,0-1.388,0.623-1.388,1.391
					C90.517,92.83,91.143,93.453,91.911,93.453z M91.911,102.184c0.768,0,1.391-0.623,1.391-1.391c0-0.768-0.623-1.391-1.391-1.391
					h-0.007c-0.768,0-1.388,0.623-1.388,1.391C90.517,101.561,91.143,102.184,91.911,102.184z M101.854,64.477h-0.007
					c-0.768,0-1.388,0.623-1.388,1.391c0,0.768,0.626,1.391,1.394,1.391c0.768,0,1.391-0.623,1.391-1.391
					C103.245,65.099,102.622,64.477,101.854,64.477z M131.681,84.722c0.768,0,1.391-0.623,1.391-1.391
					c0-0.768-0.623-1.391-1.391-1.391h-0.007c-0.768,0-1.387,0.623-1.387,1.391C130.287,84.099,130.913,84.722,131.681,84.722z
					 M131.681,75.99c0.768,0,1.391-0.623,1.391-1.391c0-0.768-0.623-1.391-1.391-1.391h-0.007c-0.768,0-1.387,0.623-1.387,1.391
					C130.287,75.368,130.913,75.99,131.681,75.99z M131.14,67.149c0.167,0.07,0.35,0.109,0.542,0.109
					c0.203,0,0.393-0.048,0.567-0.127c0.006-0.003,0.009-0.007,0.015-0.01c0.169-0.079,0.316-0.191,0.44-0.328c0,0,0,0,0,0v0
					c0.224-0.247,0.369-0.567,0.369-0.926c0-0.768-0.623-1.391-1.391-1.391h-0.007c-0.768,0-1.387,0.623-1.387,1.391c0,0,0,0,0,0
					s0,0,0,0C130.287,66.444,130.639,66.938,131.14,67.149z M92.894,108.541c-0.041-0.041-0.098-0.062-0.144-0.097
					c-0.236-0.183-0.518-0.31-0.839-0.31h-0.008c-0.768,0-1.387,0.623-1.387,1.391c0,0.378,0.154,0.718,0.399,0.969
					c0,0.001,0.001,0.001,0.001,0.002c0.253,0.258,0.604,0.42,0.994,0.42c0.074,0,0.137-0.031,0.207-0.042c0,0,0.001,0,0.001,0
					c0.001,0,0.002-0.001,0.003-0.001c0.328-0.052,0.615-0.202,0.824-0.441c0.034-0.037,0.053-0.083,0.083-0.123
					c0.063-0.089,0.13-0.174,0.171-0.277c0.063-0.154,0.1-0.322,0.101-0.501c0-0.002,0.001-0.004,0.001-0.006
					c0-0.353-0.142-0.666-0.359-0.911C92.923,108.591,92.915,108.561,92.894,108.541z M91.911,84.722
					c0.768,0,1.391-0.623,1.391-1.391c0-0.768-0.623-1.391-1.391-1.391h-0.007c-0.768,0-1.388,0.623-1.388,1.391
					C90.517,84.099,91.143,84.722,91.911,84.722z M111.796,99.402h-0.007c-0.768,0-1.387,0.623-1.387,1.391
					c0,0.768,0.626,1.391,1.394,1.391c0.768,0,1.391-0.623,1.391-1.391C113.187,100.025,112.565,99.402,111.796,99.402z
					 M111.796,73.209h-0.007c-0.768,0-1.387,0.623-1.387,1.391c0,0.768,0.626,1.391,1.394,1.391c0.768,0,1.391-0.623,1.391-1.391
					C113.187,73.832,112.565,73.209,111.796,73.209z M111.796,81.94h-0.007c-0.768,0-1.387,0.623-1.387,1.391
					c0,0.768,0.626,1.391,1.394,1.391c0.768,0,1.391-0.623,1.391-1.391C113.187,82.563,112.565,81.94,111.796,81.94z
					 M111.796,90.671h-0.007c-0.768,0-1.387,0.623-1.387,1.391c0,0.768,0.626,1.391,1.394,1.391c0.768,0,1.391-0.623,1.391-1.391
					C113.187,91.293,112.565,90.671,111.796,90.671z M111.796,64.477h-0.007c-0.768,0-1.387,0.623-1.387,1.391
					c0,0.768,0.626,1.391,1.394,1.391c0.768,0,1.391-0.623,1.391-1.391C113.187,65.099,112.565,64.477,111.796,64.477z
					 M121.739,90.671h-0.007c-0.768,0-1.388,0.623-1.388,1.391c0,0.768,0.627,1.391,1.395,1.391c0.768,0,1.391-0.623,1.391-1.391
					C123.13,91.293,122.507,90.671,121.739,90.671z M121.739,99.402h-0.007c-0.768,0-1.388,0.623-1.388,1.391
					c0,0.768,0.627,1.391,1.395,1.391c0.768,0,1.391-0.623,1.391-1.391C123.13,100.025,122.507,99.402,121.739,99.402z
					 M121.739,64.477h-0.007c-0.768,0-1.388,0.623-1.388,1.391c0,0.768,0.627,1.391,1.395,1.391c0.768,0,1.391-0.623,1.391-1.391
					C123.13,65.099,122.507,64.477,121.739,64.477z M121.739,81.94h-0.007c-0.768,0-1.388,0.623-1.388,1.391
					c0,0.768,0.627,1.391,1.395,1.391c0.768,0,1.391-0.623,1.391-1.391C123.13,82.563,122.507,81.94,121.739,81.94z M121.739,73.209
					h-0.007c-0.768,0-1.388,0.623-1.388,1.391c0,0.768,0.627,1.391,1.395,1.391c0.768,0,1.391-0.623,1.391-1.391
					C123.13,73.832,122.507,73.209,121.739,73.209z M91.911,67.258c0.768,0,1.391-0.623,1.391-1.391
					c0-0.768-0.623-1.391-1.391-1.391h-0.007c-0.768,0-1.388,0.623-1.388,1.391C90.517,66.636,91.143,67.258,91.911,67.258z
					 M91.911,75.99c0.768,0,1.391-0.623,1.391-1.391c0-0.768-0.623-1.391-1.391-1.391h-0.007c-0.768,0-1.388,0.623-1.388,1.391
					C90.517,75.368,91.143,75.99,91.911,75.99z M132.198,90.775c-0.135-0.056-0.285-0.079-0.439-0.089
					c-0.027-0.002-0.05-0.016-0.077-0.016h-0.008c-0.768,0-1.387,0.623-1.387,1.391c0,0.187,0.039,0.363,0.107,0.525
					c0.047,0.114,0.124,0.207,0.198,0.303c0.029,0.037,0.046,0.082,0.079,0.116c0.231,0.246,0.55,0.397,0.906,0.425
					c0.002,0,0.004,0.001,0.006,0.002c0,0,0,0,0,0c0.035,0.003,0.064,0.02,0.099,0.02c0.768,0,1.391-0.623,1.391-1.391
					C133.073,91.476,132.71,90.98,132.198,90.775z M111.797,108.133h-0.008c-0.322,0-0.604,0.127-0.839,0.311
					c-0.045,0.035-0.102,0.056-0.142,0.097c-0.226,0.226-0.356,0.536-0.384,0.875c-0.003,0.038-0.022,0.07-0.022,0.108v0
					c0,0.172,0.041,0.332,0.098,0.484c0.018,0.049,0.042,0.091,0.065,0.137c0.051,0.1,0.113,0.191,0.186,0.275
					c0.036,0.042,0.068,0.084,0.108,0.121c0.112,0.102,0.235,0.19,0.374,0.252c0,0,0,0,0.001,0c0.173,0.076,0.361,0.123,0.561,0.123
					c0.62,0,1.127-0.413,1.307-0.973c0.048-0.128,0.081-0.263,0.082-0.409c0-0.003,0.002-0.006,0.002-0.009
					C113.188,108.756,112.564,108.133,111.797,108.133z"/>
				<g>
					<polygon fill="#FFFFFF" points="195.819,62.929 115.966,142.769 113.3,142.769 193.141,62.929 					"/>
					<polygon fill="#FFFFFF" points="203.49,62.929 123.637,142.769 120.971,142.769 200.812,62.929 					"/>
					<polygon fill="#FFFFFF" points="211.161,62.929 131.308,142.769 128.642,142.769 208.483,62.929 					"/>
				</g>
				<path fill="#FFFFFF" d="M196.74,104.036h-3.69v-3.69c0-0.521-0.422-0.943-0.943-0.943c-0.521,0-0.943,0.423-0.943,0.943v3.69
					h-3.691c-0.521,0-0.943,0.422-0.943,0.943c0,0.521,0.422,0.943,0.943,0.943h3.691v3.691c0,0.521,0.422,0.943,0.943,0.943
					c0.521,0,0.943-0.422,0.943-0.943v-3.691h3.69c0.521,0,0.943-0.422,0.943-0.943C197.683,104.458,197.26,104.036,196.74,104.036z
					"/>
				<polygon fill="#27456B" points="138.493,164.764 138.493,159.487 135.565,159.487 135.565,164.764 130.287,164.764 
					130.287,167.692 135.565,167.692 135.565,172.97 138.493,172.97 138.493,167.692 143.77,167.692 143.77,164.764 				"/>
			</g>
		</g>
		<g>
			<defs>
				<path id="SVGID_3_" d="M327.076,126.384v39.073c0,26.365-21.054,47.42-47.419,47.42h-8.536
					c-26.365,0-47.419-21.055-47.419-47.42v-39.073c0-26.365,21.054-47.419,47.419-47.419h8.536
					C306.022,78.965,327.076,100.019,327.076,126.384z M261.258,121.452V170.2c0,8.346,6.259,15.174,14.036,15.174
					c8.157,0,14.226-6.828,14.226-15.174v-48.748c0-8.346-6.259-15.174-14.036-15.174
					C267.327,106.278,261.258,113.106,261.258,121.452z"/>
			</defs>
			<clipPath id="SVGID_4_">
				<use xlink:href="#SVGID_3_"  overflow="visible"/>
			</clipPath>
			<g clip-path="url(#SVGID_4_)">
				<polygon fill="#EFC53E" points="310.867,223.185 310.867,108.286 321.064,98.089 378.514,155.538 				"/>
				<polygon fill="#DF626C" points="284.644,249.408 227.194,191.959 310.867,108.286 310.867,223.185 				"/>
				
					<rect x="222.61" y="57.312" transform="matrix(0.7071 0.7071 -0.7071 0.7071 142.1906 -161.8283)" fill="#60A6AD" width="87.658" height="66.827"/>
				
					<rect x="186.552" y="93.827" transform="matrix(-0.7071 0.7071 -0.7071 -0.7071 472.0619 79.7774)" fill="#27456B" width="65.914" height="87.658"/>
				<g>
					<path fill="#EFC53E" d="M238.831,140.206c3.274-3.274,8.601-3.274,11.875,0c3.274,3.274,3.274,8.601,0,11.875
						c-3.274,3.274-8.602,3.274-11.876,0C235.557,148.808,235.557,143.48,238.831,140.206z M249.349,150.724
						c2.525-2.525,2.525-6.635,0-9.161c-2.525-2.525-6.635-2.525-9.161,0c-2.526,2.526-2.526,6.636,0,9.161
						C242.713,153.25,246.823,153.25,249.349,150.724z"/>
				</g>
				<g>
					<path fill="#27456B" d="M262.827,179.608l7.967-7.967l7.967,7.967l-7.967,7.967L262.827,179.608z M270.794,174.355
						l-5.253,5.253l5.252,5.252l5.253-5.253L270.794,174.355z"/>
				</g>
				<g>
					<g>
						<circle fill="#FFFFFF" cx="248.389" cy="99.726" r="1.629"/>
						<circle fill="#FFFFFF" cx="237.79" cy="110.325" r="1.629"/>
						<circle fill="#FFFFFF" cx="227.191" cy="120.924" r="1.629"/>
						<circle fill="#FFFFFF" cx="216.592" cy="131.524" r="1.629"/>
						<circle fill="#FFFFFF" cx="205.992" cy="142.123" r="1.629"/>
					</g>
					<g>
						<circle fill="#FFFFFF" cx="238.711" cy="100.109" r="1.629"/>
						<circle fill="#FFFFFF" cx="228.111" cy="110.708" r="1.629"/>
						<circle fill="#FFFFFF" cx="217.512" cy="121.307" r="1.629"/>
						<circle fill="#FFFFFF" cx="206.913" cy="131.906" r="1.629"/>
						<circle fill="#FFFFFF" cx="196.314" cy="142.506" r="1.629"/>
					</g>
				</g>
				<g>
					<path fill="#FFFFFF" d="M219.629,163.013c0.121-0.121,0.289-0.193,0.472-0.187c0.353,0.011,0.63,0.306,0.62,0.659l-0.186,6.008
						l6.688-0.208l-0.209,6.686l6.682-0.212l-0.211,6.684l6.683-0.212l-0.211,6.684l6.683-0.212l-0.213,6.682l6.68-0.215
						l-0.234,7.364c-0.013,0.353-0.307,0.631-0.66,0.619c-0.354-0.012-0.63-0.307-0.62-0.66l0.191-6.001l-6.68,0.215l0.213-6.683
						l-6.684,0.212l0.211-6.684l-6.683,0.212l0.211-6.684l-6.683,0.213l0.209-6.686l-6.687,0.207l0.229-7.368
						C219.447,163.277,219.518,163.125,219.629,163.013z"/>
				</g>
				<g>
					<path fill="#FFFFFF" d="M254.145,67.19c0.121-0.121,0.289-0.193,0.472-0.187c0.353,0.011,0.63,0.306,0.62,0.659l-0.186,6.008
						l6.688-0.208l-0.209,6.686l6.682-0.213l-0.211,6.684l6.683-0.212l-0.211,6.684l6.683-0.212l-0.213,6.682l6.68-0.215
						l-0.234,7.364c-0.013,0.353-0.307,0.631-0.66,0.619c-0.354-0.011-0.63-0.307-0.62-0.66l0.191-6.001l-6.68,0.215l0.213-6.682
						l-6.684,0.212l0.211-6.684l-6.684,0.212l0.211-6.684l-6.683,0.213l0.21-6.686l-6.687,0.207l0.229-7.368
						C253.963,67.454,254.034,67.302,254.145,67.19z"/>
				</g>
				<g>
					<path fill="#27456B" d="M316.974,205.188l4.877-4.57l-4.877-4.57l4.877-4.588l-4.877-4.588l5.366-5.04
						c0.136-0.118,0.29-0.181,0.443-0.172c0.172-0.009,0.335,0.063,0.471,0.199c0.235,0.253,0.226,0.661-0.036,0.905l-4.37,4.117
						l4.868,4.579l-4.868,4.579l4.868,4.579l-4.868,4.579l4.868,4.579l-4.877,4.57l0.452,0.416l-0.905,0.905l-1.412-1.321
						l4.877-4.569L316.974,205.188z"/>
				</g>
				<path fill="#FFFFFF" d="M354.638,152.054l0.005-0.005c0.553-0.553,0.55-1.446-0.002-1.999c-0.553-0.553-1.451-0.55-2.004,0.002
					c-0.553,0.553-0.553,1.449,0,2.002C353.189,152.607,354.085,152.607,354.638,152.054z M348.356,145.772l0.005-0.005
					c0.553-0.553,0.55-1.446-0.002-1.999c-0.553-0.553-1.452-0.55-2.004,0.002c-0.553,0.553-0.553,1.449,0,2.002
					C346.907,146.325,347.803,146.325,348.356,145.772z M335.791,133.207l0.005-0.005c0.553-0.553,0.55-1.447-0.002-1.999
					c-0.553-0.553-1.451-0.55-2.004,0.002c-0.553,0.553-0.553,1.449,0,2.002C334.342,133.759,335.238,133.76,335.791,133.207z
					 M342.074,139.489l0.005-0.005c0.553-0.553,0.55-1.447-0.002-1.999c-0.553-0.553-1.452-0.55-2.004,0.002
					c-0.553,0.553-0.553,1.449,0,2.002C340.625,140.042,341.521,140.042,342.074,139.489z M360.921,158.337l0.005-0.005
					c0.553-0.553,0.55-1.446-0.002-1.999c-0.553-0.553-1.452-0.55-2.004,0.002c-0.553,0.553-0.553,1.449,0,2.002
					C359.472,158.89,360.368,158.89,360.921,158.337z M353.509,136.616c-0.553,0.553-0.553,1.449,0,2.002
					c0.553,0.553,1.449,0.553,2.001,0l0.005-0.005c0.553-0.553,0.55-1.446-0.002-1.999
					C354.96,136.061,354.062,136.063,353.509,136.616z M347.226,130.333c-0.553,0.553-0.553,1.449,0,2.002
					c0.553,0.553,1.449,0.553,2.001,0l0.005-0.005c0.553-0.553,0.55-1.447-0.002-1.999
					C348.678,129.778,347.779,129.781,347.226,130.333z M367.204,164.62l0.005-0.005c0.553-0.553,0.55-1.446-0.002-1.999
					c-0.553-0.553-1.451-0.55-2.004,0.003c-0.553,0.553-0.553,1.449,0,2.002C365.755,165.173,366.651,165.173,367.204,164.62z
					 M331.174,171.515c-0.553,0.553-0.553,1.449,0,2.002c0.553,0.553,1.449,0.553,2.002,0l0.005-0.005
					c0.553-0.553,0.55-1.446-0.003-1.999C332.626,170.96,331.727,170.962,331.174,171.515z M337.457,177.798
					c-0.553,0.553-0.553,1.449,0,2.002c0.553,0.553,1.449,0.552,2.001,0l0.005-0.005c0.553-0.553,0.55-1.446-0.002-1.999
					C338.908,177.243,338.009,177.245,337.457,177.798z M344.209,183.77c-0.171,0.069-0.33,0.173-0.469,0.311
					c-0.146,0.146-0.248,0.317-0.317,0.499c-0.002,0.006-0.001,0.012-0.004,0.018c-0.065,0.179-0.09,0.365-0.081,0.552c0,0,0,0,0,0
					h0c0.017,0.339,0.142,0.673,0.401,0.932c0.553,0.553,1.449,0.553,2.001,0l0.005-0.005c0.553-0.553,0.55-1.446-0.002-1.999
					c0,0,0,0,0,0c0,0,0,0,0,0C345.329,183.664,344.72,183.562,344.209,183.77z M341.945,126.467c0.059,0,0.115-0.026,0.173-0.034
					c0.301-0.038,0.596-0.149,0.827-0.381l0.005-0.005c0.553-0.553,0.55-1.446-0.003-1.999c-0.272-0.272-0.627-0.406-0.984-0.41
					c-0.001,0-0.001,0-0.002,0c-0.368-0.003-0.737,0.132-1.017,0.413c-0.053,0.053-0.076,0.121-0.119,0.179c0,0,0,0-0.001,0
					c0,0.001,0,0.002-0.001,0.003c-0.198,0.273-0.297,0.588-0.276,0.91c0.002,0.051,0.021,0.098,0.029,0.148
					c0.019,0.11,0.032,0.219,0.076,0.322c0.066,0.156,0.16,0.304,0.288,0.433c0.002,0.002,0.002,0.004,0.004,0.005
					c0.254,0.254,0.582,0.377,0.914,0.398C341.887,126.452,341.915,126.467,341.945,126.467z M359.791,142.898
					c-0.553,0.553-0.552,1.449,0,2.001c0.553,0.553,1.449,0.553,2.001,0l0.005-0.005c0.553-0.553,0.55-1.447-0.002-1.999
					C361.242,142.343,360.344,142.345,359.791,142.898z M334.919,146.643l0.005-0.005c0.553-0.553,0.55-1.446-0.003-1.999
					c-0.553-0.553-1.452-0.55-2.004,0.002c-0.553,0.553-0.553,1.449,0,2.002C333.47,147.196,334.366,147.196,334.919,146.643z
					 M353.767,165.491l0.005-0.005c0.553-0.553,0.55-1.446-0.003-1.999c-0.553-0.553-1.452-0.55-2.004,0.002
					c-0.553,0.553-0.553,1.449,0,2.002C352.318,166.044,353.214,166.044,353.767,165.491z M347.484,159.208l0.005-0.005
					c0.553-0.553,0.55-1.446-0.003-1.999c-0.553-0.553-1.451-0.55-2.004,0.002c-0.553,0.553-0.553,1.449,0,2.002
					C346.035,159.761,346.931,159.761,347.484,159.208z M341.202,152.926l0.005-0.005c0.553-0.553,0.55-1.446-0.003-1.999
					c-0.553-0.553-1.452-0.55-2.004,0.002c-0.553,0.553-0.553,1.449,0,2.002C339.753,153.479,340.649,153.479,341.202,152.926z
					 M360.05,171.774l0.005-0.005c0.553-0.553,0.55-1.446-0.003-1.999c-0.553-0.553-1.451-0.55-2.004,0.003
					c-0.553,0.553-0.553,1.449,0,2.001C358.601,172.327,359.497,172.327,360.05,171.774z M334.047,160.081l0.005-0.005
					c0.553-0.553,0.55-1.447-0.002-1.999c-0.553-0.553-1.452-0.55-2.005,0.003s-0.553,1.449,0,2.002
					C332.599,160.633,333.495,160.633,334.047,160.081z M327.765,153.798l0.005-0.005c0.553-0.553,0.55-1.447-0.002-1.999
					c-0.553-0.553-1.452-0.55-2.005,0.003c-0.553,0.553-0.553,1.449,0,2.002C326.316,154.351,327.212,154.351,327.765,153.798z
					 M352.895,178.929l0.005-0.005c0.553-0.553,0.551-1.446-0.002-1.999c-0.553-0.553-1.452-0.549-2.004,0.003
					c-0.553,0.553-0.553,1.449,0,2.001C351.447,179.481,352.343,179.481,352.895,178.929z M340.329,166.363l0.005-0.005
					c0.553-0.553,0.55-1.447-0.002-1.999c-0.553-0.553-1.452-0.55-2.005,0.003c-0.553,0.553-0.553,1.449,0,2.002
					C338.881,166.915,339.777,166.915,340.329,166.363z M346.612,172.645l0.005-0.005c0.553-0.553,0.55-1.447-0.002-1.999
					c-0.553-0.553-1.452-0.55-2.005,0.003s-0.553,1.449,0,2.002C345.163,173.198,346.06,173.198,346.612,172.645z M372.357,155.464
					c-0.553,0.553-0.553,1.449,0,2.001c0.553,0.553,1.449,0.553,2.001,0l0.005-0.005c0.553-0.553,0.55-1.446-0.002-1.999
					C373.808,154.909,372.91,154.911,372.357,155.464z M366.074,149.181c-0.553,0.553-0.553,1.449,0,2.002
					c0.553,0.553,1.449,0.553,2.001,0l0.005-0.005c0.553-0.553,0.55-1.446-0.002-1.999
					C367.525,148.626,366.626,148.628,366.074,149.181z M326.447,167.531c0.138-0.057,0.262-0.148,0.38-0.252
					c0.021-0.018,0.047-0.025,0.067-0.044l0.005-0.005c0.553-0.553,0.55-1.446-0.002-1.999c-0.135-0.135-0.29-0.233-0.455-0.301
					c-0.115-0.048-0.238-0.06-0.36-0.076c-0.047-0.006-0.093-0.026-0.14-0.027c-0.343-0.011-0.681,0.11-0.958,0.346
					c-0.002,0.001-0.004,0.002-0.005,0.003c0,0,0,0,0,0c-0.027,0.023-0.061,0.032-0.086,0.057c-0.552,0.552-0.553,1.449,0,2.001
					C325.312,167.656,325.931,167.752,326.447,167.531z M328.637,140.361l0.005-0.005c0.232-0.232,0.343-0.526,0.38-0.827
					c0.007-0.058,0.033-0.113,0.033-0.172c-0.001-0.325-0.13-0.642-0.353-0.906c-0.025-0.029-0.035-0.066-0.062-0.094l0,0
					c-0.124-0.124-0.268-0.21-0.419-0.277c-0.048-0.022-0.096-0.035-0.146-0.051c-0.109-0.035-0.218-0.056-0.332-0.064
					c-0.056-0.004-0.109-0.011-0.165-0.009c-0.153,0.007-0.306,0.032-0.45,0.088c0,0,0,0,0,0c-0.179,0.069-0.348,0.172-0.492,0.316
					c-0.446,0.446-0.514,1.108-0.24,1.64c0.058,0.127,0.131,0.248,0.235,0.354c0.002,0.002,0.003,0.005,0.005,0.007
					C327.188,140.914,328.084,140.914,328.637,140.361z"/>
				<g>
					<polygon fill="#FFFFFF" points="300.705,233.347 300.714,118.439 302.632,116.521 302.632,231.42 					"/>
					<polygon fill="#FFFFFF" points="295.185,238.867 295.194,123.959 297.113,122.04 297.113,236.939 					"/>
					<polygon fill="#FFFFFF" points="289.666,244.386 289.675,129.478 291.593,127.56 291.593,242.459 					"/>
				</g>
				<path fill="#FFFFFF" d="M268.626,218.834l2.655-2.655l2.655,2.655c0.375,0.375,0.983,0.375,1.357,0
					c0.375-0.375,0.375-0.983,0-1.357l-2.655-2.655l2.656-2.656c0.375-0.375,0.375-0.983,0-1.357c-0.375-0.375-0.983-0.375-1.357,0
					l-2.656,2.656l-2.656-2.656c-0.375-0.375-0.983-0.375-1.357,0c-0.375,0.375-0.375,0.983,0,1.357l2.656,2.656l-2.655,2.655
					c-0.375,0.375-0.375,0.983,0,1.357C267.643,219.209,268.251,219.209,268.626,218.834z"/>
				<polygon fill="#27456B" points="268.679,118.823 272.475,122.619 274.583,120.512 270.786,116.715 274.583,112.918 
					272.476,110.811 268.679,114.608 264.881,110.811 262.774,112.918 266.571,116.715 262.775,120.512 264.882,122.619 				"/>
			</g>
		</g>
		<g>
			<defs>
				<path id="SVGID_5_" d="M441.638,121.072c0,19.347-10.432,30.729-29.022,43.626l-20.674,14.416h49.885v31.866H340.35v-6.828
					c0-14.416,3.794-23.899,15.174-32.815l37.557-29.589c7.398-5.88,10.242-12.898,10.242-19.917c0-7.398-5.88-13.278-13.277-13.278
					h-2.466c-7.398,0-13.278,5.691-13.278,13.278v5.311h-33.384v-3.604c0-24.847,17.451-44.574,48.368-44.574h5.88
					C423.24,78.965,441.638,96.414,441.638,121.072z"/>
			</defs>
			<clipPath id="SVGID_6_">
				<use xlink:href="#SVGID_5_"  overflow="visible"/>
			</clipPath>
			<g clip-path="url(#SVGID_6_)">
				<polygon fill="#EFC53E" points="357.374,66.251 437.215,146.092 451.388,146.092 451.388,66.251 				"/>
				<polygon fill="#DF626C" points="320.931,66.251 320.931,146.092 437.215,146.092 357.374,66.251 				"/>
				<rect x="385.711" y="146.095" fill="#60A6AD" width="65.671" height="86.143"/>
				<rect x="320.937" y="146.095" fill="#27456B" width="64.774" height="86.143"/>
				<g>
					<path fill="#EFC53E" d="M356.727,165.715c0-4.55,3.702-8.252,8.252-8.252c4.55,0,8.252,3.702,8.252,8.252
						c0,4.55-3.702,8.252-8.252,8.252C360.429,173.967,356.727,170.266,356.727,165.715z M358.613,165.715
						c0,3.51,2.856,6.366,6.366,6.366c3.51,0,6.366-2.856,6.366-6.366c0-3.51-2.856-6.366-6.366-6.366
						C361.469,159.35,358.613,162.206,358.613,165.715z"/>
				</g>
				<g>
					<path fill="#27456B" d="M354.274,118.841h11.073v11.072h-11.073V118.841z M363.46,120.728h-7.3v7.3h7.3V120.728z"/>
				</g>
				<g>
					<g>
						<circle fill="#FFFFFF" cx="399.75" cy="195.454" r="1.601"/>
						<circle fill="#FFFFFF" cx="385.019" cy="195.454" r="1.601"/>
						<circle fill="#FFFFFF" cx="370.289" cy="195.454" r="1.601"/>
						<circle fill="#FFFFFF" cx="355.559" cy="195.454" r="1.601"/>
						<circle fill="#FFFFFF" cx="340.828" cy="195.454" r="1.601"/>
					</g>
					<g>
						<circle fill="#FFFFFF" cx="392.758" cy="201.914" r="1.601"/>
						<circle fill="#FFFFFF" cx="378.028" cy="201.914" r="1.601"/>
						<circle fill="#FFFFFF" cx="363.297" cy="201.914" r="1.601"/>
						<circle fill="#FFFFFF" cx="348.567" cy="201.914" r="1.601"/>
						<circle fill="#FFFFFF" cx="333.836" cy="201.914" r="1.601"/>
					</g>
				</g>
				<g>
					<path fill="#FFFFFF" d="M335.788,171.462c0.168,0,0.335-0.066,0.458-0.198c0.238-0.253,0.225-0.651-0.027-0.889l-4.304-4.045
						l4.792-4.503l-4.791-4.5l4.791-4.496l-4.791-4.498l4.791-4.497l-4.791-4.498l4.791-4.497l-4.791-4.495l4.791-4.493l-5.28-4.955
						c-0.254-0.236-0.652-0.225-0.889,0.028c-0.238,0.254-0.225,0.652,0.028,0.889l4.302,4.037l-4.791,4.493l4.792,4.495
						l-4.791,4.497l4.791,4.498l-4.791,4.497l4.791,4.498l-4.791,4.496l4.791,4.5l-4.791,4.503l5.279,4.961
						C335.479,171.405,335.633,171.462,335.788,171.462z"/>
				</g>
				<g>
					<path fill="#FFFFFF" d="M426.358,214.063c0.168,0,0.335-0.066,0.458-0.198c0.238-0.253,0.225-0.651-0.027-0.889l-4.304-4.045
						l4.792-4.503l-4.791-4.5l4.791-4.496l-4.791-4.498l4.791-4.497l-4.791-4.498l4.791-4.497l-4.79-4.495l4.791-4.493l-5.28-4.955
						c-0.254-0.236-0.652-0.225-0.889,0.028c-0.238,0.254-0.225,0.652,0.028,0.889l4.302,4.037l-4.791,4.493l4.792,4.495
						l-4.791,4.497l4.791,4.498l-4.791,4.497l4.791,4.498l-4.791,4.496l4.791,4.5l-4.791,4.503l5.279,4.961
						C426.048,214.006,426.203,214.063,426.358,214.063z"/>
				</g>
				<g>
					<path fill="#27456B" d="M374.125,74.513l6.564-0.214l-0.214,6.564l6.577-0.201l-0.201,6.577l7.231-0.226
						c0.176-0.013,0.327-0.075,0.428-0.189c0.126-0.113,0.189-0.277,0.189-0.465c-0.013-0.34-0.302-0.616-0.654-0.604l-5.898,0.176
						l0.201-6.564l-6.564,0.201l0.201-6.564l-6.564,0.201l0.201-6.564l-6.564,0.214l0.025-0.604h-1.258l-0.063,1.899l6.564-0.214
						L374.125,74.513z"/>
				</g>
				<path fill="#FFFFFF" d="M435.827,86.653c0,0.768,0.623,1.391,1.391,1.391c0.768,0,1.394-0.623,1.394-1.391
					c0-0.768-0.619-1.391-1.388-1.391h-0.007C436.45,85.262,435.827,85.885,435.827,86.653z M435.827,95.384
					c0,0.768,0.623,1.391,1.391,1.391c0.768,0,1.394-0.623,1.394-1.391c0-0.768-0.619-1.391-1.388-1.391h-0.007
					C436.45,93.993,435.827,94.616,435.827,95.384z M435.827,112.846c0,0.768,0.623,1.391,1.391,1.391
					c0.768,0,1.394-0.623,1.394-1.391c0-0.768-0.619-1.391-1.388-1.391h-0.007C436.45,111.455,435.827,112.078,435.827,112.846z
					 M435.827,104.115c0,0.768,0.623,1.391,1.391,1.391c0.768,0,1.394-0.623,1.394-1.391c0-0.768-0.619-1.391-1.388-1.391h-0.007
					C436.45,102.724,435.827,103.347,435.827,104.115z M435.827,77.922c0,0.768,0.623,1.391,1.391,1.391
					c0.768,0,1.394-0.623,1.394-1.391c0-0.768-0.619-1.391-1.388-1.391h-0.007C436.45,76.531,435.827,77.154,435.827,77.922z
					 M448.555,95.384c0-0.768-0.619-1.391-1.388-1.391h-0.007c-0.768,0-1.391,0.623-1.391,1.391c0,0.768,0.623,1.391,1.391,1.391
					C447.929,96.775,448.555,96.152,448.555,95.384z M448.555,104.115c0-0.768-0.619-1.391-1.388-1.391h-0.007
					c-0.768,0-1.391,0.623-1.391,1.391c0,0.768,0.623,1.391,1.391,1.391C447.929,105.506,448.555,104.883,448.555,104.115z
					 M435.827,69.19c0,0.768,0.623,1.391,1.391,1.391c0.768,0,1.394-0.623,1.394-1.391c0-0.768-0.619-1.391-1.388-1.391h-0.007
					C436.45,67.799,435.827,68.421,435.827,69.19z M408.784,86.653c0-0.768-0.619-1.391-1.387-1.391h-0.007
					c-0.768,0-1.391,0.623-1.391,1.391c0,0.768,0.623,1.391,1.391,1.391C408.158,88.044,408.784,87.421,408.784,86.653z
					 M408.784,77.922c0-0.768-0.619-1.391-1.387-1.391h-0.007c-0.768,0-1.391,0.623-1.391,1.391c0,0.768,0.623,1.391,1.391,1.391
					C408.158,79.313,408.784,78.69,408.784,77.922z M408.784,69.19C408.784,69.19,408.784,69.19,408.784,69.19
					C408.784,69.189,408.784,69.189,408.784,69.19c0-0.768-0.619-1.391-1.387-1.391h-0.007c-0.768,0-1.391,0.623-1.391,1.391
					c0,0.359,0.145,0.679,0.369,0.926v0c0,0,0,0,0,0c0.124,0.137,0.271,0.249,0.44,0.328c0.006,0.003,0.009,0.008,0.015,0.01
					c0.174,0.078,0.364,0.127,0.567,0.127c0.192,0,0.375-0.039,0.542-0.109C408.432,70.26,408.784,69.766,408.784,69.19z
					 M446.129,111.935c-0.216,0.245-0.359,0.559-0.359,0.911c0,0.002,0.001,0.004,0.001,0.006c0.001,0.179,0.038,0.347,0.101,0.501
					c0.041,0.103,0.108,0.188,0.171,0.277c0.029,0.04,0.049,0.086,0.083,0.123c0.209,0.239,0.496,0.389,0.824,0.441
					c0.001,0,0.002,0.001,0.003,0.001c0,0,0,0,0.001,0c0.07,0.011,0.134,0.042,0.207,0.042c0.39,0,0.741-0.162,0.994-0.42
					c0.001-0.001,0.001-0.001,0.001-0.002c0.245-0.251,0.399-0.591,0.399-0.969c0-0.768-0.619-1.391-1.387-1.391h-0.008
					c-0.322,0-0.604,0.127-0.839,0.31c-0.046,0.036-0.103,0.056-0.144,0.097C446.157,111.883,446.148,111.913,446.129,111.935z
					 M448.555,86.653c0-0.768-0.619-1.391-1.388-1.391h-0.007c-0.768,0-1.391,0.623-1.391,1.391c0,0.768,0.623,1.391,1.391,1.391
					C447.929,88.044,448.555,87.421,448.555,86.653z M425.885,104.115c0,0.768,0.623,1.391,1.391,1.391
					c0.768,0,1.394-0.623,1.394-1.391c0-0.768-0.619-1.391-1.387-1.391h-0.007C426.507,102.724,425.885,103.347,425.885,104.115z
					 M425.885,77.922c0,0.768,0.623,1.391,1.391,1.391c0.768,0,1.394-0.623,1.394-1.391c0-0.768-0.619-1.391-1.387-1.391h-0.007
					C426.507,76.531,425.885,77.154,425.885,77.922z M425.885,86.653c0,0.768,0.623,1.391,1.391,1.391
					c0.768,0,1.394-0.623,1.394-1.391c0-0.768-0.619-1.391-1.387-1.391h-0.007C426.507,85.262,425.885,85.885,425.885,86.653z
					 M425.885,95.384c0,0.768,0.623,1.391,1.391,1.391c0.768,0,1.394-0.623,1.394-1.391c0-0.768-0.619-1.391-1.387-1.391h-0.007
					C426.507,93.993,425.885,94.616,425.885,95.384z M425.885,69.19c0,0.768,0.623,1.391,1.391,1.391
					c0.768,0,1.394-0.623,1.394-1.391c0-0.768-0.619-1.391-1.387-1.391h-0.007C426.507,67.799,425.885,68.421,425.885,69.19z
					 M415.942,95.384c0,0.768,0.623,1.391,1.391,1.391c0.768,0,1.395-0.623,1.395-1.391c0-0.768-0.619-1.391-1.388-1.391h-0.007
					C416.564,93.993,415.942,94.616,415.942,95.384z M415.942,104.115c0,0.768,0.623,1.391,1.391,1.391
					c0.768,0,1.395-0.623,1.395-1.391c0-0.768-0.619-1.391-1.388-1.391h-0.007C416.564,102.724,415.942,103.347,415.942,104.115z
					 M415.942,69.19c0,0.768,0.623,1.391,1.391,1.391c0.768,0,1.395-0.623,1.395-1.391c0-0.768-0.619-1.391-1.388-1.391h-0.007
					C416.564,67.799,415.942,68.421,415.942,69.19z M415.942,86.653c0,0.768,0.623,1.391,1.391,1.391
					c0.768,0,1.395-0.623,1.395-1.391c0-0.768-0.619-1.391-1.388-1.391h-0.007C416.564,85.262,415.942,85.885,415.942,86.653z
					 M415.942,77.922c0,0.768,0.623,1.391,1.391,1.391c0.768,0,1.395-0.623,1.395-1.391c0-0.768-0.619-1.391-1.388-1.391h-0.007
					C416.564,76.531,415.942,77.154,415.942,77.922z M448.555,69.19c0-0.768-0.619-1.391-1.388-1.391h-0.007
					c-0.768,0-1.391,0.622-1.391,1.391c0,0.768,0.623,1.391,1.391,1.391C447.929,70.58,448.555,69.958,448.555,69.19z
					 M448.555,77.922c0-0.768-0.619-1.391-1.388-1.391h-0.007c-0.768,0-1.391,0.623-1.391,1.391c0,0.768,0.623,1.391,1.391,1.391
					C447.929,79.313,448.555,78.69,448.555,77.922z M405.999,95.384c0,0.768,0.623,1.391,1.391,1.391c0.035,0,0.065-0.018,0.1-0.02
					c0,0,0,0,0,0c0.002,0,0.004-0.001,0.006-0.001c0.356-0.028,0.675-0.179,0.906-0.425c0.033-0.034,0.05-0.079,0.079-0.116
					c0.074-0.096,0.151-0.19,0.197-0.303c0.068-0.161,0.107-0.338,0.107-0.525c0-0.768-0.619-1.391-1.387-1.391h-0.008
					c-0.027,0-0.05,0.014-0.077,0.016c-0.154,0.009-0.304,0.032-0.439,0.089C406.362,94.303,405.999,94.799,405.999,95.384z
					 M425.884,112.846c0,0.003,0.002,0.006,0.002,0.009c0.001,0.146,0.034,0.281,0.083,0.409c0.18,0.56,0.687,0.973,1.307,0.973
					c0.201,0,0.389-0.046,0.561-0.123c0,0,0,0,0,0c0.14-0.062,0.263-0.15,0.374-0.252c0.041-0.037,0.072-0.079,0.108-0.121
					c0.073-0.084,0.135-0.175,0.186-0.275c0.023-0.046,0.047-0.088,0.065-0.137c0.058-0.152,0.098-0.312,0.098-0.484v0
					c0-0.039-0.019-0.071-0.022-0.108c-0.027-0.339-0.158-0.648-0.384-0.875c-0.041-0.041-0.097-0.061-0.142-0.097
					c-0.235-0.184-0.517-0.311-0.839-0.311h-0.008C426.507,111.455,425.884,112.078,425.884,112.846z"/>
				<g>
					<polygon fill="#FFFFFF" points="343.252,66.251 423.106,146.092 425.772,146.092 345.931,66.251 					"/>
					<polygon fill="#FFFFFF" points="335.581,66.251 415.435,146.092 418.101,146.092 338.26,66.251 					"/>
					<polygon fill="#FFFFFF" points="327.91,66.251 407.764,146.092 410.43,146.092 330.589,66.251 					"/>
				</g>
				<path fill="#FFFFFF" d="M331.046,98.626h3.69v-3.69c0-0.521,0.422-0.943,0.943-0.943c0.521,0,0.943,0.423,0.943,0.943v3.69
					h3.691c0.521,0,0.943,0.422,0.943,0.943c0,0.521-0.422,0.943-0.943,0.943h-3.691v3.691c0,0.521-0.422,0.943-0.943,0.943
					c-0.521,0-0.943-0.422-0.943-0.943v-3.691h-3.69c-0.521,0-0.943-0.423-0.943-0.943
					C330.103,99.049,330.525,98.626,331.046,98.626z"/>
				<polygon fill="#27456B" points="400.578,168.086 400.578,162.809 403.507,162.809 403.507,168.086 408.784,168.086 
					408.784,171.014 403.507,171.014 403.507,176.292 400.578,176.292 400.578,171.014 395.302,171.014 395.302,168.086 				"/>
			</g>
		</g>
		<g>
			<defs>
				<path id="SVGID_7_" d="M560.372,126.384v39.073c0,26.365-21.054,47.42-47.419,47.42h-8.536
					c-26.365,0-47.419-21.055-47.419-47.42v-39.073c0-26.365,21.054-47.419,47.419-47.419h8.536
					C539.319,78.965,560.372,100.019,560.372,126.384z M494.554,121.452V170.2c0,8.346,6.259,15.174,14.036,15.174
					c8.157,0,14.226-6.828,14.226-15.174v-48.748c0-8.346-6.259-15.174-14.035-15.174
					C500.623,106.278,494.554,113.106,494.554,121.452z"/>
			</defs>
			<clipPath id="SVGID_8_">
				<use xlink:href="#SVGID_7_"  overflow="visible"/>
			</clipPath>
			<g clip-path="url(#SVGID_8_)">
				<polygon fill="#EFC53E" points="599.061,114.778 512.118,201.721 512.118,217.154 599.061,217.154 				"/>
				<polygon fill="#DF626C" points="599.061,75.093 512.118,75.093 512.118,201.721 599.061,114.778 				"/>
				<rect x="418.309" y="145.635" fill="#60A6AD" width="93.805" height="71.513"/>
				<rect x="418.309" y="75.1" fill="#27456B" width="93.805" height="70.536"/>
				<g>
					<path fill="#EFC53E" d="M490.748,114.073c4.955,0,8.986,4.031,8.986,8.987c0,4.955-4.031,8.986-8.986,8.986
						s-8.986-4.031-8.986-8.986C481.763,118.104,485.794,114.073,490.748,114.073z M490.748,116.127
						c-3.822,0-6.932,3.11-6.932,6.933c0,3.822,3.11,6.932,6.932,6.932c3.822,0,6.932-3.11,6.932-6.932
						C497.68,119.237,494.57,116.127,490.748,116.127z"/>
				</g>
				<g>
					<path fill="#27456B" d="M541.792,111.402v12.058h-12.057v-12.058H541.792z M539.738,121.405v-7.949h-7.949v7.949H539.738z"/>
				</g>
				<g>
					<g>
						<circle fill="#FFFFFF" cx="468.729" cy="160.923" r="1.743"/>
						<circle fill="#FFFFFF" cx="468.729" cy="144.882" r="1.743"/>
						<circle fill="#FFFFFF" cx="468.729" cy="128.841" r="1.743"/>
						<circle fill="#FFFFFF" cx="468.729" cy="112.801" r="1.743"/>
						<circle fill="#FFFFFF" cx="468.729" cy="96.76" r="1.743"/>
					</g>
					<g>
						<circle fill="#FFFFFF" cx="461.695" cy="153.309" r="1.743"/>
						<circle fill="#FFFFFF" cx="461.695" cy="137.268" r="1.743"/>
						<circle fill="#FFFFFF" cx="461.695" cy="121.228" r="1.743"/>
						<circle fill="#FFFFFF" cx="461.695" cy="105.187" r="1.743"/>
						<circle fill="#FFFFFF" cx="461.695" cy="89.146" r="1.743"/>
					</g>
				</g>
				<g>
					<path fill="#FFFFFF" d="M484.491,91.271c0,0.182,0.072,0.364,0.216,0.499c0.276,0.259,0.709,0.245,0.968-0.03l4.405-4.687
						l4.903,5.218l4.9-5.217l4.896,5.217l4.898-5.217l4.897,5.217l4.898-5.217l4.897,5.217l4.895-5.217l4.893,5.217l5.395-5.75
						c0.257-0.277,0.245-0.71-0.031-0.968c-0.276-0.259-0.709-0.245-0.968,0.031l-4.396,4.685l-4.893-5.217l-4.895,5.218
						l-4.897-5.218l-4.898,5.218l-4.897-5.218l-4.898,5.218l-4.896-5.218l-4.9,5.218l-4.903-5.217l-5.403,5.748
						C484.553,90.934,484.491,91.103,484.491,91.271z"/>
				</g>
				<g>
					<path fill="#FFFFFF" d="M438.1,189.898c0,0.183,0.072,0.364,0.216,0.499c0.275,0.259,0.709,0.245,0.968-0.03l4.405-4.687
						l4.903,5.218l4.901-5.217l4.896,5.217l4.899-5.217l4.897,5.217l4.898-5.217l4.897,5.217l4.895-5.217l4.893,5.217l5.395-5.75
						c0.257-0.277,0.245-0.71-0.031-0.968c-0.276-0.259-0.709-0.245-0.968,0.031l-4.396,4.685l-4.893-5.217l-4.895,5.218
						l-4.897-5.217l-4.898,5.217l-4.897-5.217l-4.899,5.217l-4.896-5.217l-4.901,5.217l-4.903-5.217l-5.403,5.749
						C438.162,189.561,438.1,189.729,438.1,189.898z"/>
				</g>
				<g>
					<path fill="#27456B" d="M590.064,133.018l0.233,7.148l-7.148-0.233l0.219,7.162l-7.162-0.219l0.246,7.874
						c0.014,0.192,0.082,0.356,0.205,0.466c0.123,0.137,0.301,0.205,0.507,0.205c0.37-0.014,0.671-0.329,0.657-0.712l-0.192-6.423
						l7.148,0.219l-0.219-7.148l7.148,0.219l-0.219-7.148l7.148,0.219l-0.233-7.148l0.657,0.027v-1.369l-2.068-0.068l0.233,7.148
						L590.064,133.018z"/>
				</g>
				<path fill="#FFFFFF" d="M576.843,200.209c-0.836,0-1.515,0.678-1.515,1.515c0,0.836,0.678,1.518,1.515,1.518
					c0.836,0,1.515-0.675,1.515-1.511v-0.007C578.358,200.887,577.68,200.209,576.843,200.209z M567.336,200.209
					c-0.837,0-1.515,0.678-1.515,1.515c0,0.836,0.678,1.518,1.515,1.518c0.836,0,1.514-0.675,1.514-1.511v-0.007
					C568.851,200.887,568.173,200.209,567.336,200.209z M548.32,200.209c-0.836,0-1.514,0.678-1.514,1.515
					c0,0.836,0.678,1.518,1.514,1.518c0.836,0,1.515-0.675,1.515-1.511v-0.007C549.835,200.887,549.157,200.209,548.32,200.209z
					 M557.828,200.209c-0.836,0-1.515,0.678-1.515,1.515c0,0.836,0.678,1.518,1.515,1.518c0.836,0,1.514-0.675,1.514-1.511v-0.007
					C559.343,200.887,558.665,200.209,557.828,200.209z M586.352,200.209c-0.836,0-1.515,0.678-1.515,1.515
					c0,0.836,0.678,1.518,1.515,1.518c0.836,0,1.514-0.675,1.514-1.511v-0.007C587.866,200.887,587.188,200.209,586.352,200.209z
					 M567.336,214.069c0.836,0,1.514-0.674,1.514-1.511v-0.007c0-0.836-0.678-1.514-1.514-1.514c-0.837,0-1.515,0.678-1.515,1.514
					C565.822,213.388,566.5,214.069,567.336,214.069z M557.828,214.069c0.836,0,1.514-0.674,1.514-1.511v-0.007
					c0-0.836-0.678-1.514-1.514-1.514c-0.836,0-1.515,0.678-1.515,1.514C556.314,213.388,556.992,214.069,557.828,214.069z
					 M595.86,200.209c-0.836,0-1.514,0.678-1.514,1.515c0,0.836,0.678,1.518,1.514,1.518c0.837,0,1.515-0.675,1.515-1.511v-0.007
					C597.375,200.887,596.697,200.209,595.86,200.209z M576.843,170.761c0.836,0,1.515-0.674,1.515-1.511v-0.007
					c0-0.836-0.678-1.515-1.515-1.515c-0.836,0-1.515,0.678-1.515,1.515C575.329,170.079,576.007,170.761,576.843,170.761z
					 M586.352,170.761c0.836,0,1.514-0.674,1.514-1.511v-0.007c0-0.836-0.678-1.515-1.514-1.515c-0.836,0-1.515,0.678-1.515,1.515
					C584.837,170.079,585.515,170.761,586.352,170.761z M595.86,170.761C595.861,170.761,595.861,170.761,595.86,170.761
					C595.861,170.761,595.861,170.761,595.86,170.761c0.837,0,1.515-0.674,1.515-1.511v-0.007c0-0.836-0.678-1.515-1.514-1.515
					c-0.391,0-0.74,0.158-1.009,0.402h0c0,0,0,0,0,0c-0.149,0.135-0.271,0.295-0.357,0.479c-0.003,0.006-0.008,0.01-0.011,0.016
					c-0.085,0.189-0.138,0.396-0.138,0.617c0,0.209,0.042,0.409,0.119,0.59C594.695,170.378,595.233,170.761,595.86,170.761z
					 M549.313,211.428c-0.267-0.236-0.608-0.391-0.993-0.391c-0.003,0-0.004,0.001-0.007,0.001c-0.195,0.001-0.377,0.042-0.546,0.11
					c-0.112,0.044-0.204,0.117-0.302,0.186c-0.044,0.032-0.094,0.054-0.134,0.09c-0.26,0.228-0.424,0.541-0.48,0.897
					c0,0.001-0.001,0.002-0.001,0.003c0,0,0,0.001,0,0.001c-0.012,0.077-0.046,0.146-0.046,0.226c0,0.424,0.176,0.806,0.458,1.082
					c0.001,0.001,0.002,0.001,0.002,0.001c0.273,0.267,0.643,0.435,1.055,0.435c0.836,0,1.515-0.674,1.515-1.51v-0.008
					c0-0.35-0.138-0.658-0.338-0.914c-0.039-0.05-0.061-0.112-0.106-0.157C549.369,211.458,549.337,211.448,549.313,211.428z
					 M576.843,214.069c0.836,0,1.515-0.674,1.515-1.511v-0.007c0-0.836-0.678-1.514-1.515-1.514c-0.836,0-1.515,0.678-1.515,1.514
					C575.329,213.388,576.007,214.069,576.843,214.069z M557.828,189.382c-0.836,0-1.515,0.678-1.515,1.515
					c0,0.836,0.678,1.518,1.515,1.518c0.836,0,1.514-0.674,1.514-1.51v-0.008C559.343,190.06,558.665,189.382,557.828,189.382z
					 M586.352,189.382c-0.836,0-1.515,0.678-1.515,1.515c0,0.836,0.678,1.518,1.515,1.518c0.836,0,1.514-0.674,1.514-1.51v-0.008
					C587.866,190.06,587.188,189.382,586.352,189.382z M576.843,189.382c-0.836,0-1.515,0.678-1.515,1.515
					c0,0.836,0.678,1.518,1.515,1.518c0.836,0,1.515-0.674,1.515-1.51v-0.008C578.358,190.06,577.68,189.382,576.843,189.382z
					 M567.336,189.382c-0.837,0-1.515,0.678-1.515,1.515c0,0.836,0.678,1.518,1.515,1.518c0.836,0,1.514-0.674,1.514-1.51v-0.008
					C568.851,190.06,568.173,189.382,567.336,189.382z M595.86,189.382c-0.836,0-1.514,0.678-1.514,1.515
					c0,0.836,0.678,1.518,1.514,1.518c0.837,0,1.515-0.674,1.515-1.51v-0.008C597.375,190.06,596.697,189.382,595.86,189.382z
					 M567.336,178.555c-0.837,0-1.515,0.678-1.515,1.515s0.678,1.519,1.515,1.519c0.836,0,1.514-0.675,1.514-1.511v-0.008
					C568.851,179.233,568.173,178.555,567.336,178.555z M557.828,178.555c-0.836,0-1.515,0.678-1.515,1.515s0.678,1.519,1.515,1.519
					c0.836,0,1.514-0.675,1.514-1.511v-0.008C559.343,179.233,558.665,178.555,557.828,178.555z M595.86,178.555
					c-0.836,0-1.514,0.678-1.514,1.515s0.678,1.519,1.514,1.519c0.837,0,1.515-0.675,1.515-1.511v-0.008
					C597.375,179.233,596.697,178.555,595.86,178.555z M576.843,178.555c-0.836,0-1.515,0.678-1.515,1.515s0.678,1.519,1.515,1.519
					c0.836,0,1.515-0.675,1.515-1.511v-0.008C578.358,179.233,577.68,178.555,576.843,178.555z M586.352,178.555
					c-0.836,0-1.515,0.678-1.515,1.515s0.678,1.519,1.515,1.519c0.836,0,1.514-0.675,1.514-1.511v-0.008
					C587.866,179.233,587.188,178.555,586.352,178.555z M595.86,214.069c0.837,0,1.515-0.674,1.515-1.511v-0.007
					c0-0.836-0.678-1.514-1.515-1.514c-0.836,0-1.514,0.678-1.514,1.514C594.346,213.388,595.024,214.069,595.86,214.069z
					 M586.352,214.069c0.836,0,1.514-0.674,1.514-1.511v-0.007c0-0.836-0.678-1.514-1.514-1.514c-0.836,0-1.515,0.678-1.515,1.514
					C584.837,213.388,585.515,214.069,586.352,214.069z M567.336,167.727c-0.836,0-1.514,0.678-1.514,1.515
					c0,0.038,0.019,0.071,0.022,0.108c0,0,0,0,0,0c0,0.002,0.002,0.004,0.002,0.006c0.031,0.388,0.195,0.735,0.463,0.987
					c0.037,0.035,0.086,0.054,0.127,0.086c0.105,0.08,0.206,0.164,0.33,0.215c0.176,0.074,0.368,0.116,0.572,0.116
					c0.836,0,1.514-0.674,1.514-1.511v-0.008c0-0.03-0.015-0.054-0.017-0.084c-0.01-0.167-0.035-0.331-0.096-0.478
					C568.514,168.123,567.974,167.727,567.336,167.727z M548.321,189.382c-0.003,0-0.006,0.002-0.009,0.002
					c-0.159,0.001-0.306,0.038-0.445,0.09c-0.61,0.196-1.06,0.748-1.06,1.423c0,0.218,0.05,0.423,0.133,0.611c0,0,0,0,0,0
					c0.067,0.152,0.164,0.286,0.274,0.407c0.04,0.044,0.086,0.079,0.131,0.118c0.092,0.08,0.19,0.147,0.299,0.203
					c0.05,0.025,0.096,0.051,0.149,0.071c0.165,0.063,0.339,0.107,0.527,0.107h0c0.042,0,0.077-0.02,0.118-0.024
					c0.369-0.03,0.706-0.172,0.953-0.418c0.044-0.044,0.067-0.106,0.105-0.155c0.2-0.256,0.339-0.563,0.339-0.914v-0.008
					C549.835,190.06,549.157,189.382,548.321,189.382z"/>
				<g>
					<polygon fill="#FFFFFF" points="599.061,99.4 512.118,186.356 512.118,189.259 599.061,102.316 					"/>
					<polygon fill="#FFFFFF" points="599.061,91.046 512.118,178.003 512.118,180.906 599.061,93.963 					"/>
					<polygon fill="#FFFFFF" points="599.061,82.693 512.118,169.65 512.118,172.553 599.061,85.61 					"/>
				</g>
				<path fill="#FFFFFF" d="M563.805,86.107v4.019h4.019c0.567,0,1.027,0.46,1.027,1.027c0,0.567-0.46,1.027-1.027,1.027h-4.019
					v4.019c0,0.567-0.46,1.027-1.027,1.027c-0.567,0-1.027-0.46-1.027-1.027V92.18h-4.019c-0.567,0-1.027-0.46-1.027-1.027
					c0-0.567,0.46-1.027,1.027-1.027h4.019v-4.019c0-0.567,0.46-1.027,1.027-1.027C563.345,85.08,563.805,85.54,563.805,86.107z"/>
				<polygon fill="#27456B" points="488.167,161.825 493.913,161.825 493.913,165.014 488.167,165.014 488.167,170.761 
					484.978,170.761 484.978,165.014 479.232,165.014 479.232,161.825 484.978,161.825 484.978,156.079 488.167,156.079 				"/>
			</g>
		</g>
	</g>
	<g>
		<path fill="#FFFFFF" d="M161.871,78.965c28.072,0,46.471,17.45,46.471,42.108c0,19.347-10.432,30.729-29.02,43.626l-20.676,14.416
			h49.885v31.866H107.054v-6.828c0-14.416,3.794-23.899,15.174-32.815l37.557-29.589c7.397-5.88,10.242-12.898,10.242-19.917
			c0-7.398-5.88-13.278-13.277-13.278h-2.466c-7.398,0-13.278,5.691-13.278,13.278v5.311h-33.384v-3.604
			c0-24.847,17.451-44.574,48.368-44.574H161.871 M161.871,73.116h-5.88c-16.28,0-30.066,5.06-39.866,14.634
			c-9.255,9.041-14.352,21.751-14.352,35.788v3.604c0,3.23,2.618,5.849,5.849,5.849h33.384c3.23,0,5.849-2.619,5.849-5.849v-5.311
			c0-4.235,3.194-7.429,7.429-7.429h2.466c4.165,0,7.428,3.263,7.428,7.429c0,6.024-2.628,11.041-8.033,15.338l-37.537,29.573
			c-12.357,9.681-17.403,20.522-17.403,37.409v6.828c0,3.23,2.619,5.849,5.849,5.849h101.477c3.23,0,5.849-2.618,5.849-5.849
			v-31.866c0-3.23-2.618-5.849-5.849-5.849H177.26l5.407-3.77c19.458-13.5,31.524-26.314,31.524-48.423
			C214.191,92.836,192.676,73.116,161.871,73.116L161.871,73.116z"/>
		<path fill="#FFFFFF" d="M279.657,78.965c26.365,0,47.419,21.054,47.419,47.419v39.073c0,26.365-21.054,47.42-47.419,47.42h-8.536
			c-26.365,0-47.419-21.055-47.419-47.42v-39.073c0-26.365,21.054-47.419,47.419-47.419H279.657 M275.294,185.374
			c8.157,0,14.226-6.828,14.226-15.174v-48.748c0-8.346-6.26-15.174-14.036-15.174c-8.157,0-14.226,6.828-14.226,15.174V170.2
			C261.258,178.546,267.518,185.374,275.294,185.374 M279.657,73.116h-8.536c-14.314,0-27.714,5.517-37.732,15.536
			c-10.018,10.018-15.536,23.419-15.536,37.732v39.073c0,14.314,5.517,27.714,15.536,37.733
			c10.018,10.019,23.419,15.536,37.732,15.536h8.536c14.314,0,27.714-5.518,37.732-15.536
			c10.018-10.019,15.536-23.419,15.536-37.733v-39.073c0-14.314-5.517-27.714-15.536-37.732
			C307.371,78.633,293.971,73.116,279.657,73.116L279.657,73.116z M275.294,179.525c-4.514,0-8.187-4.183-8.187-9.325v-48.748
			c0-5.316,3.601-9.325,8.377-9.325c4.514,0,8.187,4.183,8.187,9.325V170.2C283.671,175.516,280.07,179.525,275.294,179.525
			L275.294,179.525z"/>
		<path fill="#FFFFFF" d="M395.167,78.965c28.072,0,46.471,17.45,46.471,42.108c0,19.347-10.432,30.729-29.022,43.626
			l-20.674,14.416h49.885v31.866H340.35v-6.828c0-14.416,3.794-23.899,15.174-32.815l37.557-29.589
			c7.398-5.88,10.242-12.898,10.242-19.917c0-7.398-5.88-13.278-13.277-13.278h-2.466c-7.398,0-13.278,5.691-13.278,13.278v5.311
			h-33.384v-3.604c0-24.847,17.451-44.574,48.368-44.574H395.167 M395.167,73.116h-5.88c-16.28,0-30.066,5.06-39.865,14.634
			c-9.255,9.041-14.352,21.751-14.352,35.788v3.604c0,3.23,2.618,5.849,5.849,5.849h33.384c3.23,0,5.849-2.619,5.849-5.849v-5.311
			c0-4.235,3.194-7.429,7.429-7.429h2.466c4.165,0,7.428,3.263,7.428,7.429c0,6.025-2.628,11.042-8.032,15.338l-37.537,29.573
			c-12.357,9.681-17.403,20.522-17.403,37.409v6.828c0,3.23,2.619,5.849,5.849,5.849h101.477c3.23,0,5.849-2.618,5.849-5.849
			v-31.866c0-3.23-2.618-5.849-5.849-5.849h-31.272l5.406-3.77c19.458-13.5,31.525-26.314,31.525-48.423
			C447.487,92.836,425.973,73.116,395.167,73.116L395.167,73.116z"/>
		<path fill="#FFFFFF" d="M512.953,78.965c26.365,0,47.419,21.054,47.419,47.419v39.073c0,26.365-21.054,47.42-47.419,47.42h-8.536
			c-26.365,0-47.419-21.055-47.419-47.42v-39.073c0-26.365,21.054-47.419,47.419-47.419H512.953 M508.59,185.374
			c8.157,0,14.226-6.828,14.226-15.174v-48.748c0-8.346-6.26-15.174-14.036-15.174c-8.157,0-14.226,6.828-14.226,15.174V170.2
			C494.554,178.546,500.814,185.374,508.59,185.374 M512.953,73.116h-8.536c-14.314,0-27.714,5.517-37.732,15.536
			c-10.018,10.018-15.536,23.419-15.536,37.732v39.073c0,14.314,5.517,27.714,15.535,37.733
			c10.018,10.019,23.419,15.536,37.732,15.536h8.536c14.314,0,27.714-5.518,37.732-15.536
			c10.018-10.019,15.536-23.419,15.536-37.733v-39.073c0-14.314-5.517-27.714-15.536-37.732
			C540.667,78.633,527.267,73.116,512.953,73.116L512.953,73.116z M508.59,179.525c-4.514,0-8.187-4.183-8.187-9.325v-48.748
			c0-5.316,3.601-9.325,8.377-9.325c4.514,0,8.187,4.183,8.187,9.325V170.2C516.967,175.516,513.366,179.525,508.59,179.525
			L508.59,179.525z"/>
	</g>
</g>
</svg>
